<svg xmlns="http://www.w3.org/2000/svg" width="53" height="58">
    <path fill="#fadc50" fill-rule="evenodd" d="M43.029 4.961c-.809.512-1.226 1.175-.927 1.474.299.3 1.411-.112 2.471-.914 2.108-1.595.827-2.06-1.544-.56M28 5.5c0 .275.225.5.5.5s.5-.225.5-.5-.225-.5-.5-.5-.5.225-.5.5m10 0c0 .275.225.5.5.5s.5-.225.5-.5-.225-.5-.5-.5-.5.225-.5.5m9 0c0 .275.225.5.5.5s.5-.225.5-.5-.225-.5-.5-.5-.5.225-.5.5M23.75 6.662c.688.278 1.813.278 2.5 0 .688-.277.125-.504-1.25-.504s-1.937.227-1.25.504M35 6.5c0 .275.225.5.5.5s.5-.225.5-.5-.225-.5-.5-.5-.5.225-.5.5m-14 1c0 .275.225.5.5.5s.5-.225.5-.5-.225-.5-.5-.5-.5.225-.5.5m7 0c0 .275.225.5.5.5s.5-.225.5-.5-.225-.5-.5-.5-.5.225-.5.5m5 0c0 .275.225.5.5.5s.5-.225.5-.5-.225-.5-.5-.5-.5.225-.5.5m15 0c0 .275.225.5.5.5s.5-.225.5-.5-.225-.5-.5-.5-.5.225-.5.5M17.98 9.524c-.696.838-1.071 1.718-.835 1.955.237.236.98-.449 1.651-1.524 1.452-2.325.968-2.58-.816-.431m7.353-.857a.95.95 0 0 0 1.334 0C27.033 8.3 26.733 8 26 8s-1.033.3-.667.667m4.795.233c-.754.478-1.203 1.375-.997 1.994.21.63.928.241 1.631-.884 1.401-2.243 1.335-2.358-.634-1.11M36 8.5c0 .275.225.5.5.5s.5-.225.5-.5-.225-.5-.5-.5-.5.225-.5.5m12 2c0 .275.225.5.5.5s.5-.225.5-.5-.225-.5-.5-.5-.5.225-.5.5m-3 1c0 .275.225.5.5.5s.5-.225.5-.5-.225-.5-.5-.5-.5.225-.5.5m-28.921 3.083c.048 1.165.285 1.402.604.605.289-.722.253-1.585-.079-1.917s-.568.258-.525 1.312M41.5 15.625c-1.798 1.53-2.166 2.138-.918 1.518 1.833-.91 5.271-4.202 4.29-4.107-.204.02-1.722 1.185-3.372 2.589M9 15.5c0 .275.225.5.5.5s.5-.225.5-.5-.225-.5-.5-.5-.5.225-.5.5m15 .478c-2.163 1.365-2.098 4.593.091 4.593 1.368 0 1.538-.313.712-1.308-.834-1.005-.718-1.167.5-.7 1.158.444 1.543.045 1.428-1.477-.175-2.326-.557-2.481-2.731-1.108m4 1.522c0 .275.225.5.5.5s.5-.225.5-.5-.225-.5-.5-.5-.5.225-.5.5m8.138 1.833c-.827.997-.773 1.334.211 1.334.725 0 1.318-.6 1.318-1.334 0-.733-.095-1.333-.211-1.333s-.709.6-1.318 1.333M9.5 21c.34.55.843 1 1.118 1s.222-.45-.118-1-.843-1-1.118-1-.222.45.118 1m3.5.5c0 .275.225.5.5.5s.5-.225.5-.5-.225-.5-.5-.5-.5.225-.5.5m-3 3c0 .275.225.5.5.5s.5-.225.5-.5-.225-.5-.5-.5-.5.225-.5.5m2 0c0 .275.225.5.5.5s.5-.225.5-.5-.225-.5-.5-.5-.5.225-.5.5m-4.595 1.655c-.443.715-.275.883.44.44C8.48 26.203 9 25.684 9 25.441c0-.834-.883-.439-1.595.714M27 26.5c0 .275.225.5.5.5s.5-.225.5-.5-.225-.5-.5-.5-.5.225-.5.5m-2 1c0 .275.225.5.5.5s.5-.225.5-.5-.225-.5-.5-.5-.5.225-.5.5M6.257 29.763C6.35 30.993 6.78 32 7.213 32c1.043 0 .972-1.159-.184-2.987-.739-1.169-.904-1.009-.772.75M15 28.5c0 .275.225.5.5.5s.5-.225.5-.5-.225-.5-.5-.5-.5.225-.5.5m-3 1c0 .275.225.5.5.5s.5-.225.5-.5-.225-.5-.5-.5-.5.225-.5.5m14 0c0 .275.225.5.5.5s.5-.225.5-.5-.225-.5-.5-.5-.5.225-.5.5m16 0c0 .275.225.5.5.5s.5-.225.5-.5-.225-.5-.5-.5-.5.225-.5.5m3.733.624c.679.684 1.486.991 1.793.683.308-.308-.247-.867-1.233-1.243-1.425-.542-1.54-.428-.56.56M10 30.5c0 .275.225.5.5.5s.5-.225.5-.5-.225-.5-.5-.5-.5.225-.5.5m26 0c0 .275.225.5.5.5s.5-.225.5-.5-.225-.5-.5-.5-.5.225-.5.5M27 32c0 .733.3 1.033.667.667a.95.95 0 0 0 0-1.334C27.3 30.967 27 31.267 27 32m3 3c0 .733.3 1.033.667.667a.95.95 0 0 0 0-1.334C30.3 33.967 30 34.267 30 35m2 1.5c0 .275.225.5.5.5s.5-.225.5-.5-.225-.5-.5-.5-.5.225-.5.5m-3.805 3c.02 1.65.244 2.204.498 1.231s.237-2.323-.037-3-.481.119-.461 1.769m4.805-1c0 .275.225.5.5.5s.5-.225.5-.5-.225-.5-.5-.5-.5.225-.5.5m-7.646 10.515-2.147 4.809 2.725-.95c2.287-.797 2.707-1.499 2.612-4.363-.165-4.975-.788-4.877-3.19.504"/>
    <path fill="#f9d638" fill-rule="evenodd" d="M35.012 7.25c-2.427 1.238-4.597 2.85-4.823 3.584-.26.842 1.375.382 4.442-1.25C37.3 8.163 40.05 7 40.742 7S42 6.55 42 6c0-1.579-2.22-1.182-6.988 1.25m10.795 1.221c.415 3.56-1.254 5.834-7.929 10.798-2.313 1.72-2.27 1.726 1.545.229 5.123-2.012 6.6-3.313 8.255-7.271 1.002-2.397 1.085-3.802.31-5.25-1.627-3.039-2.63-2.352-2.181 1.494M24.562 6.994c-4.048.773-7.563 3.965-7.561 6.867 0 1.226-.94 1.639-3.727 1.639-4.357 0-5.542 2.441-2.707 5.574 2.468 2.727 3.785 2.393 1.902-.481-1.926-2.939-.682-4.018 3.555-3.088 2.674.588 2.976.403 2.976-1.815 0-1.358.788-3.368 1.75-4.467C22.724 8.969 29 6.557 29 8.052c0 .521.488.948 1.083.948 1.287 0 .71-2.29-.645-2.566-.516-.106-2.71.147-4.876.56m2.027 10.377c.599 1.561-2.18 2.966-3.929 1.986-.872-.489-.876-.342-.017.589.867.94 1.651.967 3.25.111C28.014 18.922 28.834 16 27.031 16c-.532 0-.731.617-.442 1.371M9.19 25.58C7.985 26.423 7 27.742 7 28.511c0 .895.922.476 2.561-1.163 2.989-2.989 2.782-3.977-.371-1.768M25 25.55c0 .302.745 1.989 1.655 3.749 1.158 2.239 1.683 5.948 1.75 12.355.097 9.355 1.053 10.398 2.15 2.346.839-6.157 1.418-8 2.512-8 .513 0 .933.732.933 1.627 0 1.131 1.366.369 4.478-2.5C40.94 32.857 43.667 31 44.537 31c.869 0 1.292-.468.938-1.041-.762-1.232-4.301-.313-6.621 1.72-1.326 1.162-1.739 1.188-2.119.132-.329-.916-1.416-.426-3.603 1.626-2.964 2.779-3.132 2.821-3.132.784C30 31.66 26.977 25 25.815 25c-.448 0-.815.247-.815.55m-13.829 4.552c-4.519 2.338-4.928 2.902-2.088 2.876 2.617-.024 7.754-3.403 6.303-4.145-.487-.249-2.384.322-4.215 1.269M25 53.269c-2.165.897-2.251 1.095-.644 1.477 1.021.243 2.341-.043 2.934-.636 1.612-1.612.531-2.01-2.29-.841"/>
</svg>
