<svg width="19" height="19" viewBox="0 0 19 19" fill="none" xmlns="http://www.w3.org/2000/svg">
<path d="M9.49906 0C8.7484 0 8.14194 0.530664 8.14194 1.1875V1.9C5.046 2.44922 2.71344 4.84648 2.71344 7.71875V8.41641C2.71344 10.1605 1.97974 11.8453 0.656546 13.1516L0.34271 13.4596C-0.0135348 13.8084 -0.0983552 14.3094 0.117937 14.7361C0.334228 15.1629 0.821945 15.4375 1.35631 15.4375H17.6418C18.1762 15.4375 18.6597 15.1629 18.8802 14.7361C19.1007 14.3094 19.0117 13.8084 18.6554 13.4596L18.3416 13.1516C17.0184 11.8453 16.2847 10.1643 16.2847 8.41641V7.71875C16.2847 4.84648 13.9521 2.44922 10.8562 1.9V1.1875C10.8562 0.530664 10.2497 0 9.49906 0ZM11.4202 18.3061C11.9292 17.8607 12.2133 17.2559 12.2133 16.625H9.49906H6.78481C6.78481 17.2559 7.06896 17.8607 7.57788 18.3061C8.0868 18.7514 8.77809 19 9.49906 19C10.22 19 10.9113 18.7514 11.4202 18.3061Z" fill="white"/>
</svg>
