<svg width="26" height="26" viewBox="0 0 26 26" fill="none" xmlns="http://www.w3.org/2000/svg">
<circle cx="13" cy="13" r="13" fill="black"/>
<g clip-path="url(#clip0_320_8)">
<path d="M10.7828 6.24097C9.79844 7.7062 9.23125 9.43355 9.23125 11.2812C9.23125 15.4921 12.175 19.0757 16.2812 20.3777C15.7 20.498 15.0953 20.5625 14.4719 20.5625C9.93437 20.5625 6.25 17.1808 6.25 13C6.25 10.0394 8.09688 7.48276 10.7875 6.24097H10.7828ZM13.6938 3.40503C8.27031 3.77026 4 7.92534 4 13C4 18.3152 8.6875 22.625 14.4766 22.625C16.7172 22.625 18.7891 21.9804 20.4953 20.8804C20.5844 20.8246 20.6687 20.7644 20.7531 20.7085C20.9781 20.5539 21.1937 20.3906 21.4047 20.2187C21.5312 20.1156 21.6531 20.0125 21.775 19.905C22.0094 19.6945 22.0703 19.3679 21.9203 19.1015C21.7703 18.8351 21.4469 18.6847 21.1234 18.7363C20.95 18.7621 20.7766 18.7878 20.6031 18.805C20.3688 18.8265 20.1297 18.8437 19.8859 18.848C19.8297 18.848 19.7688 18.848 19.7125 18.848C19.7078 18.848 19.7031 18.848 19.6984 18.848C15.1609 18.8394 11.4859 15.4578 11.4859 11.2855C11.4859 8.93081 12.6531 6.82964 14.4906 5.44175C14.5375 5.40308 14.5891 5.3687 14.6406 5.33003C14.8281 5.19253 15.025 5.06362 15.2266 4.94331C15.3719 4.85737 15.5219 4.77144 15.6766 4.69409C15.9625 4.5437 16.1078 4.24292 16.0375 3.95073C15.9672 3.65854 15.6953 3.4394 15.3672 3.41362C15.1984 3.40073 15.0344 3.39214 14.8656 3.38784C14.7391 3.38354 14.6078 3.38354 14.4813 3.38354C14.3266 3.38354 14.1766 3.38784 14.0219 3.39214C13.9141 3.39644 13.8062 3.40073 13.6984 3.40933L13.6938 3.40503Z" fill="white"/>
</g>
<defs>
<clipPath id="clip0_320_8">
<rect width="18" height="22" fill="white" transform="translate(4 2)"/>
</clipPath>
</defs>
</svg>
