<svg width="26" height="26" viewBox="0 0 26 26" fill="none" xmlns="http://www.w3.org/2000/svg">
<circle cx="13" cy="13" r="13" fill="#D9D9D9"/>
<path d="M16.4164 3.04591C16.602 3.12383 16.7356 3.29083 16.7727 3.48751L17.5111 7.49161L21.5152 8.22637C21.7119 8.26348 21.8789 8.39708 21.9568 8.58262C22.0348 8.76817 22.0125 8.97969 21.8975 9.14669L19.5856 12.5014L21.8975 15.8524C22.0125 16.0193 22.0348 16.2309 21.9568 16.4164C21.8789 16.602 21.7119 16.7356 21.5152 16.7727L17.5111 17.5111L16.7727 21.5152C16.7356 21.7119 16.602 21.8789 16.4164 21.9568C16.2309 22.0348 16.0193 22.0125 15.8523 21.8975L12.5014 19.5856L9.1504 21.8975C8.9834 22.0125 8.77188 22.0348 8.58633 21.9568C8.40079 21.8789 8.26719 21.7119 8.23008 21.5152L7.49161 17.5111L3.48751 16.7727C3.29083 16.7356 3.12383 16.602 3.04591 16.4164C2.96798 16.2309 2.99024 16.0193 3.10528 15.8524L5.41719 12.5014L3.10528 9.1504C2.99024 8.98341 2.96798 8.77188 3.04591 8.58634C3.12383 8.40079 3.29083 8.26719 3.48751 8.23008L7.49161 7.49161L8.23008 3.48751C8.26719 3.29083 8.40079 3.12383 8.58633 3.04591C8.77188 2.96798 8.9834 2.99024 9.1504 3.10528L12.5014 5.41719L15.8523 3.10528C16.0193 2.99024 16.2309 2.96798 16.4164 3.04591ZM8.93887 12.5014C8.93887 11.5565 9.31421 10.6504 9.98231 9.98231C10.6504 9.31421 11.5565 8.93887 12.5014 8.93887C13.4462 8.93887 14.3523 9.31421 15.0204 9.98231C15.6885 10.6504 16.0639 11.5565 16.0639 12.5014C16.0639 13.4462 15.6885 14.3523 15.0204 15.0204C14.3523 15.6885 13.4462 16.0639 12.5014 16.0639C11.5565 16.0639 10.6504 15.6885 9.98231 15.0204C9.31421 14.3523 8.93887 13.4462 8.93887 12.5014ZM17.2514 12.5014C17.2514 11.2416 16.7509 10.0334 15.8601 9.14262C14.9693 8.25182 13.7612 7.75137 12.5014 7.75137C11.2416 7.75137 10.0334 8.25182 9.14262 9.14262C8.25182 10.0334 7.75137 11.2416 7.75137 12.5014C7.75137 13.7612 8.25182 14.9693 9.14262 15.8601C10.0334 16.7509 11.2416 17.2514 12.5014 17.2514C13.7612 17.2514 14.9693 16.7509 15.8601 15.8601C16.7509 14.9693 17.2514 13.7612 17.2514 12.5014Z" fill="#333333"/>
</svg>
